<?xml version="1.0" encoding="UTF-8" standalone="no"?>
<!-- Created with Inkscape (http://www.inkscape.org/) -->

<svg
   xmlns:dc="http://purl.org/dc/elements/1.1/"
   xmlns:cc="http://creativecommons.org/ns#"
   xmlns:rdf="http://www.w3.org/1999/02/22-rdf-syntax-ns#"
   xmlns:svg="http://www.w3.org/2000/svg"
   xmlns="http://www.w3.org/2000/svg"
   xmlns:sodipodi="http://sodipodi.sourceforge.net/DTD/sodipodi-0.dtd"
   xmlns:inkscape="http://www.inkscape.org/namespaces/inkscape"
   version="1.1"
   id="svg2"
   width="250"
   height="250"
   viewBox="0 0 250 250"
   sodipodi:docname="javacadabra-logo.svg"
   inkscape:version="0.92.4 5da689c313, 2019-01-14">
  <metadata
     id="metadata8">
    <rdf:RDF>
      <cc:Work
         rdf:about="">
        <dc:format>image/svg+xml</dc:format>
        <dc:type
           rdf:resource="http://purl.org/dc/dcmitype/StillImage" />
        <dc:title></dc:title>
      </cc:Work>
    </rdf:RDF>
  </metadata>
  <defs
     id="defs6" />
  <sodipodi:namedview
     pagecolor="#ffffff"
     bordercolor="#666666"
     borderopacity="1"
     objecttolerance="10"
     gridtolerance="10"
     guidetolerance="10"
     inkscape:pageopacity="0"
     inkscape:pageshadow="2"
     inkscape:window-width="1600"
     inkscape:window-height="835"
     id="namedview4"
     showgrid="true"
     inkscape:snap-nodes="true"
     inkscape:zoom="1.691323"
     inkscape:cx="-97.297404"
     inkscape:cy="84.765237"
     inkscape:window-x="0"
     inkscape:window-y="0"
     inkscape:window-maximized="1"
     inkscape:current-layer="svg2"
     showguides="false">
    <inkscape:grid
       type="xygrid"
       id="grid3784" />
  </sodipodi:namedview>
  <path
     style="fill:#000000;stroke-width:1.67359829"
     d="M 61.500291,246.92406 C 19.990914,241.10349 -2.543697,230.53331 0.22886567,218.18386 2.5173688,207.99048 16.370298,201.00481 46.325812,194.93839 l 18.436632,-3.73368 -0.03188,-5.17952 C 64.579004,161.36607 54.645367,116.78823 41.964935,83.862762 37.426745,72.079109 33.281191,58.555929 32.752589,53.811255 30.954254,37.669661 36.668621,24.896312 48.54088,18.519622 56.922329,14.017876 62.653821,14.250092 72.267128,19.480909 96.577284,32.70861 109.81055,67.708992 116.26903,135.86054 l 0.94446,9.96621 6.80378,-0.52144 6.80376,-0.52145 -0.41628,-14.59645 C 129.8708,111.4648 127.36682,84.367567 124.0597,61.523402 118.56856,23.592843 125.0906,4.4510464 144.83324,0.5543656 c 20.2191,-3.9907209 33.50139,13.5579504 40.00887,52.8600934 3.93713,23.778341 2.3427,69.882961 -3.21923,93.086621 l -4.1162,17.17229 3.85365,6.0103 c 2.11951,3.30568 5.53629,9.70815 7.59284,14.22768 2.65986,5.84547 4.93201,8.48587 7.87167,9.14748 43.84104,9.86705 57.8561,18.28578 51.85836,31.15091 -4.66519,10.00674 -19.2519,16.13726 -50.87682,21.38249 -31.67,5.25272 -103.349658,5.9531 -136.306089,1.33183 z m 97.049059,-8.61962 c 13.45637,-0.95287 25.85043,-2.18547 27.54232,-2.73911 7.98239,-2.61207 -2.80621,-45.60929 -15.72884,-62.68616 l -4.72903,-6.24927 4.13636,-17.79195 c 8.63471,-37.14076 9.59286,-75.365337 2.59337,-103.459886 -6.02819,-24.195999 -12.29297,-33.569307 -22.48457,-33.641264 -7.21475,-0.05094 -11.13899,2.38785 -14.34495,8.914958 -3.17796,6.470087 -2.47269,30.075303 1.81043,60.594628 1.45803,10.389236 3.15568,29.222474 3.77257,41.851634 l 1.12156,22.96212 5.70877,1.9377 c 4.51117,1.53121 5.70878,2.83832 5.70878,6.23078 0,3.83777 -0.60545,4.25064 -5.70878,3.89288 -3.13981,-0.22009 -13.7826,-0.60648 -23.65062,-0.85862 l -17.94183,-0.45842 -1.23898,-22.19085 C 103.84415,111.83608 98.095999,80.240974 92.211053,63.681254 85.219712,44.008239 69.939685,27.153676 59.095846,27.153676 c -4.154317,0 -6.590116,1.41147 -10.475201,6.070054 -7.933821,9.513412 -7.200748,18.832677 3.727297,47.383241 19.614017,51.243509 23.016502,74.342959 23.016502,156.259059 0,0.4698 35.087576,2.66587 46.485666,2.90947 6.72821,0.14373 23.24285,-0.51818 36.69924,-1.47106 z m -27.32054,-10.37253 c -4.02099,-2.46572 -3.5458,-6.17523 1.21143,-9.45692 7.83228,-5.40298 17.08368,1.29935 11.21595,8.12558 -3.01168,3.50364 -8.01142,4.03926 -12.42738,1.33134 z m -27.11113,-14.19325 c -3.12368,-3.96261 -3.84152,-12.04848 -1.37999,-15.54463 3.70466,-5.26179 10.55104,-2.4837 11.85045,4.80863 1.7907,10.04941 -5.28917,17.30883 -10.47046,10.736 z m 50.46368,-4.34292 c -2.48384,-4.88623 -2.1505,-13.1751 0.62747,-15.6024 5.97882,-5.22404 13.30949,3.445 10.9217,12.9157 -1.60458,6.36435 -8.82577,8.04423 -11.54917,2.6867 z"
     id="path22"
     inkscape:connector-curvature="0"
     inkscape:export-xdpi="96"
     inkscape:export-ydpi="96" />
</svg>
